<svg xmlns="http://www.w3.org/2000/svg" viewBox="7.8 -14.699999999999989 6924.299999999999 299.4"><path fill="#" d="M312.60 284.70L312.60 237L148.50 237C148.20 237 147.90 236.70 147.90 236.40L147.90 57.60C147.90 41.40 137.40 33.30 116.70 33.30L70.20 33.30L70.20-14.70L7.80-14.70L7.80 225L70.20 225L70.20 81.30L84.90 81.30C85.20 81.30 85.50 81.60 85.50 81.90L85.50 261C85.50 276.90 96 284.70 117 284.70ZM281.40 225C302.10 225 312.60 217.20 312.60 201.30L312.60 105.30L250.50 105.30L250.50 176.70C250.50 177 250.20 177.30 249.90 177.30L235.50 177.30C235.20 177.30 234.90 177 234.90 176.70L234.90 93L312.60 93L312.60 45.60L234.90 45.60L234.90 33.30L172.50 33.30L172.50 45.60L157.20 45.60L157.20 93L172.50 93L172.50 201.30C172.50 217.20 183 225 203.70 225ZM446.10 225C466.80 225 477.30 217.20 477.30 201.30L477.30 105.30L415.20 105.30L415.20 176.70C415.20 177 414.90 177.30 414.60 177.30L400.20 177.30C399.90 177.30 399.60 177 399.60 176.70L399.60 93L477.30 93L477.30 45.60L399.60 45.60L399.60 33.30L337.20 33.30L337.20 45.60L321.90 45.60L321.90 93L337.20 93L337.20 201.30C337.20 217.20 347.70 225 368.40 225ZM554.40 284.70L554.40 225L600.90 225C622.50 225 632.10 217.20 632.10 201.30L632.10 57.60C632.10 41.40 621.60 33.30 600.90 33.30L492.00 33.30L492.00 284.70ZM569.70 176.70C569.70 177 569.40 177.30 569.10 177.30L554.40 177.30L554.40 81.30L569.10 81.30C569.40 81.30 569.70 81.60 569.70 81.90ZM756 225C776.70 225 787.20 217.20 787.20 201.30L787.20 129C787.20 113.10 776.70 105.30 756 105.30L710.10 105.30C709.80 105.30 709.50 105 709.50 104.70L709.50 81.90C709.50 81.60 709.80 81.30 710.10 81.30L724.20 81.30C724.50 81.30 724.80 81.60 724.80 81.90L724.80 93L787.20 93L787.20 57.60C787.20 41.40 776.70 33.30 756 33.30L678.30 33.30C657.60 33.30 647.10 41.40 647.10 57.60L647.10 129C647.10 145.20 657.60 153.30 678.30 153.30L724.20 153.30C724.50 153.30 724.80 153.60 724.80 153.90L724.80 176.70C724.80 177 724.50 177.30 724.20 177.30L710.10 177.30C709.80 177.30 709.50 177 709.50 176.70L709.50 165.30L647.10 165.30L647.10 201.30C647.10 217.20 657.60 225 678.30 225ZM869.70 225L869.70 177.30L807.30 177.30L807.30 225ZM869.70 135.30L869.70 87.30L807.30 87.30L807.30 135.30ZM927.60 255L1005.30 3.30L962.70 3.30L885 255ZM1054.50 255L1132.20 3.30L1089.60 3.30L1011.90 255ZM1354.20 225L1385.40 33.30L1325.10 33.30L1309.20 141L1293.90 33.30L1231.80 33.30L1216.20 141L1200.30 33.30L1136.10 33.30L1167.30 225L1245.60 225L1261.50 129L1277.10 225ZM1605.30 225L1636.50 33.30L1576.20 33.30L1560.30 141L1545 33.30L1482.90 33.30L1467.30 141L1451.40 33.30L1387.20 33.30L1418.40 225L1496.70 225L1512.60 129L1528.20 225ZM1856.40 225L1887.60 33.30L1827.30 33.30L1811.40 141L1796.10 33.30L1734.00 33.30L1718.40 141L1702.50 33.30L1638.30 33.30L1669.50 225L1747.80 225L1763.70 129L1779.30 225ZM1937.70 225L1937.70 177.30L1875.30 177.30L1875.30 225ZM2061.60 284.70C2082.30 284.70 2092.80 276.90 2092.80 261L2092.80 33.30L2030.40 33.30L2030.40 177.30L2015.70 177.30C2015.40 177.30 2015.10 177 2015.10 176.70L2015.10 33.30L1952.70 33.30L1952.70 201.30C1952.70 217.20 1963.20 225 1983.90 225L2030.40 225L2030.40 236.40C2030.40 236.70 2030.10 237 2029.80 237L1952.70 237L1952.70 284.70ZM2185.50 176.70C2185.50 177 2185.20 177.30 2184.90 177.30L2170.80 177.30C2170.50 177.30 2170.20 177 2170.20 176.70L2170.20 81.90C2170.20 81.60 2170.50 81.30 2170.80 81.30L2184.90 81.30C2185.20 81.30 2185.50 81.60 2185.50 81.90ZM2216.70 225C2237.40 225 2247.90 217.20 2247.90 201.30L2247.90 57.60C2247.90 41.40 2237.40 33.30 2216.70 33.30L2139 33.30C2118.30 33.30 2107.80 41.40 2107.80 57.60L2107.80 201.30C2107.80 217.20 2118.30 225 2139 225ZM2371.50 225C2392.20 225 2402.70 217.20 2402.70 201.30L2402.70 33.30L2340.30 33.30L2340.30 176.70C2340.30 177 2340 177.30 2339.70 177.30L2325.60 177.30C2325.30 177.30 2325 177 2325 176.70L2325 33.30L2262.60 33.30L2262.60 201.30C2262.60 217.20 2273.10 225 2293.80 225ZM2536.20 225C2556.90 225 2567.40 217.20 2567.40 201.30L2567.40 105.30L2505.30 105.30L2505.30 176.70C2505.30 177 2505 177.30 2504.70 177.30L2490.30 177.30C2490 177.30 2489.70 177 2489.70 176.70L2489.70 93L2567.40 93L2567.40 45.60L2489.70 45.60L2489.70 33.30L2427.30 33.30L2427.30 45.60L2412 45.60L2412 93L2427.30 93L2427.30 201.30C2427.30 217.20 2437.80 225 2458.50 225ZM2691.30 225C2712.00 225 2722.50 217.20 2722.50 201.30L2722.50 33.30L2660.10 33.30L2660.10 176.70C2660.10 177 2659.80 177.30 2659.50 177.30L2645.40 177.30C2645.10 177.30 2644.80 177 2644.80 176.70L2644.80 33.30L2582.40 33.30L2582.40 201.30C2582.40 217.20 2592.90 225 2613.60 225ZM2846.70 225C2867.40 225 2877.90 217.20 2877.90 201.30L2877.90 57.60C2877.90 41.40 2867.40 33.30 2846.70 33.30L2800.20 33.30L2800.20-14.70L2737.80-14.70L2737.80 225ZM2815.50 176.70C2815.50 177 2815.20 177.30 2814.90 177.30L2800.20 177.30L2800.20 81.30L2814.90 81.30C2815.20 81.30 2815.50 81.60 2815.50 81.90ZM2970.30 108.60L2955.00 108.60L2955.00 81.90C2955.00 81.60 2955.30 81.30 2955.60 81.30L2969.70 81.30C2970.00 81.30 2970.30 81.60 2970.30 81.90ZM3001.50 225C3022.20 225 3032.70 217.20 3032.70 201.30L3032.70 165.30L2970.30 165.30L2970.30 176.70C2970.30 177 2970.00 177.30 2969.70 177.30L2955.60 177.30C2955.30 177.30 2955.00 177 2955.00 176.70L2955.00 153.30L3032.70 153.30L3032.70 57.60C3032.70 41.40 3022.20 33.30 3001.50 33.30L2923.80 33.30C2903.10 33.30 2892.60 41.40 2892.60 57.60L2892.60 201.30C2892.60 217.20 2903.10 225 2923.80 225ZM3110.10 225L3110.10 177.30L3047.70 177.30L3047.70 225ZM3234.00 225C3254.70 225 3265.20 217.20 3265.20 201.30L3265.20 132L3202.80 132L3202.80 176.70C3202.80 177 3202.50 177.30 3202.20 177.30L3188.10 177.30C3187.80 177.30 3187.50 177 3187.50 176.70L3187.50 81.90C3187.50 81.60 3187.80 81.30 3188.10 81.30L3202.20 81.30C3202.50 81.30 3202.80 81.60 3202.80 81.90L3202.80 114.30L3265.20 114.30L3265.20 57.60C3265.20 41.40 3254.70 33.30 3234.00 33.30L3156.30 33.30C3135.60 33.30 3125.10 41.40 3125.10 57.60L3125.10 201.30C3125.10 217.20 3135.60 225 3156.30 225ZM3357.30 176.70C3357.30 177 3357.00 177.30 3356.70 177.30L3342.60 177.30C3342.30 177.30 3342.00 177 3342.00 176.70L3342.00 81.90C3342.00 81.60 3342.30 81.30 3342.60 81.30L3356.70 81.30C3357.00 81.30 3357.30 81.60 3357.30 81.90ZM3388.50 225C3409.20 225 3419.70 217.20 3419.70 201.30L3419.70 57.60C3419.70 41.40 3409.20 33.30 3388.50 33.30L3310.80 33.30C3290.10 33.30 3279.60 41.40 3279.60 57.60L3279.60 201.30C3279.60 217.20 3290.10 225 3310.80 225ZM3652.50 225L3652.50 60C3652.50 44.40 3635.70 33.30 3614.10 33.30C3594.60 33.30 3581.10 36 3571.80 47.70C3564.90 38.10 3555.90 33.30 3537.60 33.30C3519.60 33.30 3504.60 37.50 3497.10 45.60L3497.10 33.30L3434.70 33.30L3434.70 225L3497.10 225L3497.10 81.90C3497.10 81.60 3497.40 81.30 3497.70 81.30L3511.80 81.30C3512.10 81.30 3512.40 81.60 3512.40 81.90L3512.40 225L3574.80 225L3574.80 81.90C3574.80 81.60 3575.10 81.30 3575.40 81.30L3590.10 81.30C3590.40 81.30 3590.70 81.60 3590.70 81.90L3590.70 225ZM3706.20 255L3783.90 3.30L3741.30 3.30L3663.60 255ZM4005.90 225L4037.10 33.30L3976.80 33.30L3960.90 141L3945.60 33.30L3883.50 33.30L3867.90 141L3852.00 33.30L3787.80 33.30L3819.00 225L3897.30 225L3913.20 129L3928.80 225ZM4122.90 177.30L4108.20 177.30C4107.90 177.30 4107.60 177 4107.60 176.70L4107.60 147.90C4107.60 147.60 4107.90 147.30 4108.20 147.30L4122.90 147.30ZM4185.30 225L4185.30 57.60C4185.30 41.40 4174.80 33.30 4154.10 33.30L4076.40 33.30C4055.70 33.30 4045.20 41.40 4045.20 57.60L4045.20 93L4107.60 93L4107.60 81.90C4107.60 81.60 4107.90 81.30 4108.20 81.30L4122.30 81.30C4122.60 81.30 4122.90 81.60 4122.90 81.90L4122.90 105.30L4076.40 105.30C4055.70 105.30 4045.20 113.10 4045.20 129L4045.20 201.30C4045.20 217.20 4055.70 225 4076.40 225ZM4318.80 225C4339.50 225 4350.00 217.20 4350.00 201.30L4350.00 105.30L4287.90 105.30L4287.90 176.70C4287.90 177 4287.60 177.30 4287.30 177.30L4272.90 177.30C4272.60 177.30 4272.30 177 4272.30 176.70L4272.30 93L4350.00 93L4350.00 45.60L4272.30 45.60L4272.30 33.30L4209.90 33.30L4209.90 45.60L4194.60 45.60L4194.60 93L4209.90 93L4209.90 201.30C4209.90 217.20 4220.40 225 4241.10 225ZM4473.60 225C4494.30 225 4504.80 217.20 4504.80 201.30L4504.80 132L4442.40 132L4442.40 176.70C4442.40 177 4442.10 177.30 4441.80 177.30L4427.70 177.30C4427.40 177.30 4427.10 177 4427.10 176.70L4427.10 81.90C4427.10 81.60 4427.40 81.30 4427.70 81.30L4441.80 81.30C4442.10 81.30 4442.40 81.60 4442.40 81.90L4442.40 114.30L4504.80 114.30L4504.80 57.60C4504.80 41.40 4494.30 33.30 4473.60 33.30L4395.90 33.30C4375.20 33.30 4364.70 41.40 4364.70 57.60L4364.70 201.30C4364.70 217.20 4375.20 225 4395.90 225ZM4659.90 225L4659.90 57.60C4659.90 41.40 4649.40 33.30 4628.70 33.30L4582.20 33.30L4582.20-14.70L4519.80-14.70L4519.80 225L4582.20 225L4582.20 81.30L4596.90 81.30C4597.20 81.30 4597.50 81.60 4597.50 81.90L4597.50 225ZM4738.20 225L4738.20 177.30L4675.80 177.30L4675.80 225ZM4782.30 153.30C4803.00 153.30 4813.50 145.20 4813.50 129L4813.50 57.60C4813.50 41.40 4803.00 33.30 4782.30 33.30L4704.60 33.30C4683.90 33.30 4673.40 41.40 4673.40 57.60L4673.40 93L4735.80 93L4735.80 81.90C4735.80 81.60 4736.10 81.30 4736.40 81.30L4750.50 81.30C4750.80 81.30 4751.10 81.60 4751.10 81.90L4751.10 104.70C4751.10 105 4750.80 105.30 4750.50 105.30L4707.00 105.30C4686.30 105.30 4675.80 113.10 4675.80 129L4675.80 165.30L4738.20 165.30L4738.20 153.90C4738.20 153.60 4738.50 153.30 4738.80 153.30ZM4942.80 225L4974.30 33.30L4913.40 33.30L4897.80 149.10L4881.90 33.30L4818.60 33.30L4849.50 225ZM5111.70 186.30L5111.70 150.30L4987.20 150.30L4987.20 186.30ZM5111.70 108.30L5111.70 72.30L4987.20 72.30L4987.20 108.30ZM5206.50 109.50C5206.50 109.80 5206.20 110.10 5205.90 110.10L5191.20 110.10L5191.20 81.30L5205.90 81.30C5206.20 81.30 5206.50 81.60 5206.50 81.90ZM5237.70 225C5258.40 225 5268.90 217.20 5268.90 201.30L5268.90 144.90C5268.90 135.60 5263.80 130.50 5253.30 129C5263.50 127.80 5268.60 122.70 5268.60 113.40L5268.60 57.60C5268.60 41.40 5258.40 33.30 5237.70 33.30L5128.80 33.30L5128.80 225ZM5206.50 176.70C5206.50 177 5206.20 177.30 5205.90 177.30L5191.20 177.30L5191.20 148.20L5205.90 148.20C5206.20 148.20 5206.50 148.50 5206.50 148.80ZM5361.30 108.60L5346.00 108.60L5346.00 81.90C5346.00 81.60 5346.30 81.30 5346.60 81.30L5360.70 81.30C5361.00 81.30 5361.30 81.60 5361.30 81.90ZM5392.50 225C5413.20 225 5423.70 217.20 5423.70 201.30L5423.70 165.30L5361.30 165.30L5361.30 176.70C5361.30 177 5361.00 177.30 5360.70 177.30L5346.60 177.30C5346.30 177.30 5346.00 177 5346.00 176.70L5346.00 153.30L5423.70 153.30L5423.70 57.60C5423.70 41.40 5413.20 33.30 5392.50 33.30L5314.80 33.30C5294.10 33.30 5283.60 41.40 5283.60 57.60L5283.60 201.30C5283.60 217.20 5294.10 225 5314.80 225ZM5547.00 284.70C5567.70 284.70 5578.20 276.90 5578.20 261L5578.20 33.30L5469.30 33.30C5448.60 33.30 5438.10 41.40 5438.10 57.60L5438.10 201.30C5438.10 217.20 5448.60 225 5469.30 225L5515.80 225L5515.80 236.40C5515.80 236.70 5515.50 237 5515.20 237L5283.60 237L5283.60 284.70ZM5515.80 177.30L5501.10 177.30C5500.80 177.30 5500.50 177 5500.50 176.70L5500.50 81.90C5500.50 81.60 5500.80 81.30 5501.10 81.30L5515.80 81.30ZM5693.10 225L5693.10 156.60C5718.60 156.60 5731.50 143.70 5731.50 117.60L5731.50 33.30L5669.10 33.30L5669.10 111C5669.10 111.30 5668.80 111.60 5668.50 111.60L5654.40 111.60C5654.10 111.60 5653.80 111.30 5653.80 111L5653.80 33.30L5591.40 33.30L5591.40 117.60C5591.40 143.70 5604.60 156.60 5630.70 156.60L5630.70 225ZM5852.40 225C5873.10 225 5883.60 216.90 5883.60 200.70L5883.60 57C5883.60 41.10 5873.10 33.30 5852.40 33.30L5774.70 33.30C5754.00 33.30 5743.50 41.10 5743.50 57L5743.50 129.30C5743.50 145.20 5754.00 153 5774.70 153L5821.20 153L5821.20 176.40C5821.20 176.70 5820.90 177 5820.60 177L5806.50 177C5806.20 177 5805.90 176.70 5805.90 176.40L5805.90 165.30L5743.50 165.30L5743.50 200.70C5743.50 216.90 5754.00 225 5774.70 225ZM5821.20 108L5806.50 108C5806.20 108 5805.90 107.70 5805.90 107.40L5805.90 81.60C5805.90 81.30 5806.20 81 5806.50 81L5820.60 81C5820.90 81 5821.20 81.30 5821.20 81.60ZM6006.90 284.70C6027.60 284.70 6038.10 276.90 6038.10 261L6038.10 33.30L5975.70 33.30L5975.70 177.30L5961.00 177.30C5960.70 177.30 5960.40 177 5960.40 176.70L5960.40 33.30L5898.00 33.30L5898.00 201.30C5898.00 217.20 5908.50 225 5929.20 225L5975.70 225L5975.70 236.40C5975.70 236.70 5975.40 237 5975.10 237L5898.00 237L5898.00 284.70ZM6389.70 284.70L6389.70 237L6272.10 237C6271.80 237 6271.50 236.70 6271.50 236.40L6271.50 60C6271.50 44.40 6254.70 33.30 6233.10 33.30C6213.60 33.30 6200.10 36 6190.80 47.70C6183.90 38.10 6174.90 33.30 6156.60 33.30C6138.60 33.30 6123.60 37.50 6116.10 45.60L6116.10 33.30L6053.70 33.30L6053.70 225L6116.10 225L6116.10 81.90C6116.10 81.60 6116.40 81.30 6116.70 81.30L6130.80 81.30C6131.10 81.30 6131.40 81.60 6131.40 81.90L6131.40 225L6193.80 225L6193.80 81.90C6193.80 81.60 6194.10 81.30 6194.40 81.30L6209.10 81.30C6209.40 81.30 6209.70 81.60 6209.70 81.90L6209.70 261C6209.70 273.30 6225.60 284.70 6240.90 284.70ZM6389.70 225L6389.70 177.30L6349.20 177.30L6349.20 33.30L6286.80 33.30L6286.80 225ZM6598.20 225L6629.40 33.30L6569.10 33.30L6553.20 141L6537.90 33.30L6475.80 33.30L6460.20 141L6444.30 33.30L6380.10 33.30L6411.30 225L6489.60 225L6505.50 129L6521.10 225ZM6746.40 225C6767.10 225 6777.60 217.20 6777.60 201.30L6777.60 132L6715.20 132L6715.20 176.70C6715.20 177 6714.90 177.30 6714.60 177.30L6700.50 177.30C6700.20 177.30 6699.90 177 6699.90 176.70L6699.90 81.90C6699.90 81.60 6700.20 81.30 6700.50 81.30L6714.60 81.30C6714.90 81.30 6715.20 81.60 6715.20 81.90L6715.20 114.30L6777.60 114.30L6777.60 57.60C6777.60 41.40 6767.10 33.30 6746.40 33.30L6668.70 33.30C6648.00 33.30 6637.50 41.40 6637.50 57.60L6637.50 201.30C6637.50 217.20 6648.00 225 6668.70 225ZM6932.10 284.70L6932.10 33.30L6823.20 33.30C6802.50 33.30 6792.00 41.40 6792.00 57.60L6792.00 201.30C6792.00 217.20 6801.60 225 6823.20 225L6869.70 225L6869.70 284.70ZM6869.70 177.30L6855.00 177.30C6854.70 177.30 6854.40 177 6854.40 176.70L6854.40 81.90C6854.40 81.60 6854.70 81.30 6855.00 81.30L6869.70 81.30Z"/></svg>